<mxfile host="app.diagrams.net" modified="2023-08-18T07:37:58.631Z" agent="Mozilla/5.0 (X11; Linux x86_64; rv:109.0) Gecko/20100101 Firefox/115.0" etag="cTzdL6nRFbhKsVWHMSiD" version="21.6.8" type="github">
  <diagram id="6a731a19-8d31-9384-78a2-239565b7b9f0" name="Page-1">
    <mxGraphModel dx="1585" dy="868" grid="1" gridSize="10" guides="1" tooltips="1" connect="1" arrows="1" fold="1" page="1" pageScale="1" pageWidth="827" pageHeight="1169" background="none" math="0" shadow="0">
      <root>
        <mxCell id="0" />
        <mxCell id="1" parent="0" />
        <mxCell id="0-0zIx_9ccKQPmnC_EUt-3" style="edgeStyle=orthogonalEdgeStyle;rounded=0;orthogonalLoop=1;jettySize=auto;html=1;startArrow=classic;startFill=1;" edge="1" parent="1" source="pyfSCo66cifnsj62iawL-2275">
          <mxGeometry relative="1" as="geometry">
            <mxPoint x="990" y="135" as="targetPoint" />
          </mxGeometry>
        </mxCell>
        <mxCell id="pyfSCo66cifnsj62iawL-2275" value="&lt;div&gt;Internet&lt;/div&gt;" style="shape=mxgraph.cisco.storage.cloud;sketch=0;html=1;pointerEvents=1;dashed=0;fillColor=#036897;strokeColor=#ffffff;strokeWidth=2;verticalLabelPosition=bottom;verticalAlign=top;align=center;outlineConnect=0;" parent="1" vertex="1">
          <mxGeometry x="1100" y="80" width="186" height="110" as="geometry" />
        </mxCell>
        <mxCell id="0-0zIx_9ccKQPmnC_EUt-2" style="edgeStyle=orthogonalEdgeStyle;rounded=0;orthogonalLoop=1;jettySize=auto;html=1;entryX=0.5;entryY=0;entryDx=0;entryDy=0;startArrow=classic;startFill=1;" edge="1" parent="1" source="qMRLxm-rLrutaJmakqVO-5" target="qMRLxm-rLrutaJmakqVO-9">
          <mxGeometry relative="1" as="geometry" />
        </mxCell>
        <mxCell id="qMRLxm-rLrutaJmakqVO-5" value="&lt;div&gt;Docker&lt;/div&gt;" style="shape=mxgraph.cisco.misc.bridge;sketch=0;html=1;pointerEvents=1;dashed=0;fillColor=#036897;strokeColor=#ffffff;strokeWidth=2;verticalLabelPosition=bottom;verticalAlign=top;align=center;outlineConnect=0;direction=east;" parent="1" vertex="1">
          <mxGeometry x="793" y="240" width="74" height="56" as="geometry" />
        </mxCell>
        <mxCell id="qMRLxm-rLrutaJmakqVO-20" value="" style="group" parent="1" vertex="1" connectable="0">
          <mxGeometry x="10" y="70" width="494.5" height="130" as="geometry" />
        </mxCell>
        <mxCell id="qMRLxm-rLrutaJmakqVO-37" style="edgeStyle=orthogonalEdgeStyle;rounded=0;orthogonalLoop=1;jettySize=auto;html=1;startArrow=classic;startFill=1;" parent="qMRLxm-rLrutaJmakqVO-20" source="qMRLxm-rLrutaJmakqVO-15" edge="1">
          <mxGeometry relative="1" as="geometry">
            <mxPoint x="660.0000000000002" y="65" as="targetPoint" />
          </mxGeometry>
        </mxCell>
        <mxCell id="qMRLxm-rLrutaJmakqVO-15" value="" style="rounded=1;whiteSpace=wrap;html=1;" parent="qMRLxm-rLrutaJmakqVO-20" vertex="1">
          <mxGeometry width="494.5" height="130" as="geometry" />
        </mxCell>
        <mxCell id="pyfSCo66cifnsj62iawL-2257" value="User" style="shape=mxgraph.cisco.people.androgenous_person;sketch=0;html=1;pointerEvents=1;dashed=0;fillColor=#036897;strokeColor=#ffffff;strokeWidth=2;verticalLabelPosition=bottom;verticalAlign=top;align=center;outlineConnect=0;" parent="qMRLxm-rLrutaJmakqVO-20" vertex="1">
          <mxGeometry x="18.25" y="17.5" width="69" height="82" as="geometry" />
        </mxCell>
        <mxCell id="pyfSCo66cifnsj62iawL-2261" value="&lt;div&gt;Wireguard&lt;/div&gt;&lt;div&gt;Client&lt;/div&gt;" style="shape=mxgraph.cisco.switches.generic_softswitch;sketch=0;html=1;pointerEvents=1;dashed=0;fillColor=#036897;strokeColor=#ffffff;strokeWidth=2;verticalLabelPosition=bottom;verticalAlign=top;align=center;outlineConnect=0;" parent="qMRLxm-rLrutaJmakqVO-20" vertex="1">
          <mxGeometry x="156.25" y="21" width="50" height="75" as="geometry" />
        </mxCell>
        <mxCell id="qMRLxm-rLrutaJmakqVO-16" value="" style="edgeStyle=orthogonalEdgeStyle;rounded=0;orthogonalLoop=1;jettySize=auto;html=1;startArrow=classic;startFill=1;" parent="qMRLxm-rLrutaJmakqVO-20" source="pyfSCo66cifnsj62iawL-2257" target="pyfSCo66cifnsj62iawL-2261" edge="1">
          <mxGeometry relative="1" as="geometry" />
        </mxCell>
        <mxCell id="pyfSCo66cifnsj62iawL-2284" value="&lt;div&gt;Client&amp;nbsp;&lt;/div&gt;&lt;div&gt;Firewall&lt;/div&gt;" style="shape=mxgraph.cisco.security.firewall;sketch=0;html=1;pointerEvents=1;dashed=0;fillColor=#036897;strokeColor=#ffffff;strokeWidth=2;verticalLabelPosition=bottom;verticalAlign=top;align=center;outlineConnect=0;" parent="qMRLxm-rLrutaJmakqVO-20" vertex="1">
          <mxGeometry x="294.25" y="22.25" width="29" height="72.5" as="geometry" />
        </mxCell>
        <mxCell id="qMRLxm-rLrutaJmakqVO-18" value="" style="edgeStyle=orthogonalEdgeStyle;rounded=0;orthogonalLoop=1;jettySize=auto;html=1;startArrow=classic;startFill=1;" parent="qMRLxm-rLrutaJmakqVO-20" source="pyfSCo66cifnsj62iawL-2261" target="pyfSCo66cifnsj62iawL-2284" edge="1">
          <mxGeometry relative="1" as="geometry" />
        </mxCell>
        <mxCell id="qMRLxm-rLrutaJmakqVO-17" value="Router" style="shape=mxgraph.cisco.routers.router;sketch=0;html=1;pointerEvents=1;dashed=0;fillColor=#036897;strokeColor=#ffffff;strokeWidth=2;verticalLabelPosition=bottom;verticalAlign=top;align=center;outlineConnect=0;" parent="qMRLxm-rLrutaJmakqVO-20" vertex="1">
          <mxGeometry x="398.25" y="32" width="78" height="53" as="geometry" />
        </mxCell>
        <mxCell id="qMRLxm-rLrutaJmakqVO-19" value="" style="edgeStyle=orthogonalEdgeStyle;rounded=0;orthogonalLoop=1;jettySize=auto;html=1;startArrow=classic;startFill=1;" parent="qMRLxm-rLrutaJmakqVO-20" source="pyfSCo66cifnsj62iawL-2284" target="qMRLxm-rLrutaJmakqVO-17" edge="1">
          <mxGeometry relative="1" as="geometry" />
        </mxCell>
        <mxCell id="qMRLxm-rLrutaJmakqVO-25" value="" style="group" parent="1" vertex="1" connectable="0">
          <mxGeometry x="142.25" y="256.5" width="230" height="120" as="geometry" />
        </mxCell>
        <mxCell id="qMRLxm-rLrutaJmakqVO-21" value="" style="rounded=1;whiteSpace=wrap;html=1;" parent="qMRLxm-rLrutaJmakqVO-25" vertex="1">
          <mxGeometry width="230" height="120" as="geometry" />
        </mxCell>
        <mxCell id="qMRLxm-rLrutaJmakqVO-11" value="" style="shape=mxgraph.cisco.modems_and_phones.cell_phone;sketch=0;html=1;pointerEvents=1;dashed=0;fillColor=#036897;strokeColor=#ffffff;strokeWidth=2;verticalLabelPosition=bottom;verticalAlign=top;align=center;outlineConnect=0;" parent="qMRLxm-rLrutaJmakqVO-25" vertex="1">
          <mxGeometry x="62" y="17.5" width="34" height="58" as="geometry" />
        </mxCell>
        <mxCell id="qMRLxm-rLrutaJmakqVO-12" value="User" style="shape=mxgraph.cisco.people.standing_man;sketch=0;html=1;pointerEvents=1;dashed=0;fillColor=#036897;strokeColor=#ffffff;strokeWidth=2;verticalLabelPosition=bottom;verticalAlign=top;align=center;outlineConnect=0;" parent="qMRLxm-rLrutaJmakqVO-25" vertex="1">
          <mxGeometry x="40" y="29" width="22" height="62" as="geometry" />
        </mxCell>
        <mxCell id="qMRLxm-rLrutaJmakqVO-13" value="&lt;div&gt;Wireguard&lt;/div&gt;&lt;div&gt;Client&lt;/div&gt;" style="shape=mxgraph.cisco.switches.generic_softswitch;sketch=0;html=1;pointerEvents=1;dashed=0;fillColor=#036897;strokeColor=#ffffff;strokeWidth=2;verticalLabelPosition=bottom;verticalAlign=top;align=center;outlineConnect=0;" parent="qMRLxm-rLrutaJmakqVO-25" vertex="1">
          <mxGeometry x="160" y="9" width="50" height="75" as="geometry" />
        </mxCell>
        <mxCell id="qMRLxm-rLrutaJmakqVO-22" value="" style="edgeStyle=orthogonalEdgeStyle;rounded=0;orthogonalLoop=1;jettySize=auto;html=1;" parent="qMRLxm-rLrutaJmakqVO-25" source="qMRLxm-rLrutaJmakqVO-11" target="qMRLxm-rLrutaJmakqVO-13" edge="1">
          <mxGeometry relative="1" as="geometry" />
        </mxCell>
        <mxCell id="qMRLxm-rLrutaJmakqVO-29" value="" style="group" parent="1" vertex="1" connectable="0">
          <mxGeometry x="670" y="80" width="320" height="120" as="geometry" />
        </mxCell>
        <mxCell id="qMRLxm-rLrutaJmakqVO-28" value="" style="rounded=1;whiteSpace=wrap;html=1;" parent="qMRLxm-rLrutaJmakqVO-29" vertex="1">
          <mxGeometry width="320" height="120" as="geometry" />
        </mxCell>
        <mxCell id="qMRLxm-rLrutaJmakqVO-1" value="&lt;div&gt;Host&lt;/div&gt;&lt;div&gt;Firewall&lt;/div&gt;" style="shape=mxgraph.cisco.security.firewall;sketch=0;html=1;pointerEvents=1;dashed=0;fillColor=#036897;strokeColor=#ffffff;strokeWidth=2;verticalLabelPosition=bottom;verticalAlign=top;align=center;outlineConnect=0;" parent="qMRLxm-rLrutaJmakqVO-29" vertex="1">
          <mxGeometry x="156" y="13" width="29" height="67" as="geometry" />
        </mxCell>
        <mxCell id="qMRLxm-rLrutaJmakqVO-2" value="&lt;div&gt;Host&lt;/div&gt;" style="shape=mxgraph.cisco.servers.standard_host;sketch=0;html=1;pointerEvents=1;dashed=0;fillColor=#036897;strokeColor=#ffffff;strokeWidth=2;verticalLabelPosition=bottom;verticalAlign=top;align=center;outlineConnect=0;" parent="qMRLxm-rLrutaJmakqVO-29" vertex="1">
          <mxGeometry x="270" y="15.5" width="43" height="62" as="geometry" />
        </mxCell>
        <mxCell id="qMRLxm-rLrutaJmakqVO-4" style="edgeStyle=orthogonalEdgeStyle;rounded=0;orthogonalLoop=1;jettySize=auto;html=1;startArrow=classic;startFill=1;" parent="qMRLxm-rLrutaJmakqVO-29" source="qMRLxm-rLrutaJmakqVO-1" target="qMRLxm-rLrutaJmakqVO-2" edge="1">
          <mxGeometry relative="1" as="geometry" />
        </mxCell>
        <mxCell id="qMRLxm-rLrutaJmakqVO-27" value="" style="edgeStyle=orthogonalEdgeStyle;rounded=0;orthogonalLoop=1;jettySize=auto;html=1;startArrow=classic;startFill=1;" parent="qMRLxm-rLrutaJmakqVO-29" source="qMRLxm-rLrutaJmakqVO-26" target="qMRLxm-rLrutaJmakqVO-1" edge="1">
          <mxGeometry relative="1" as="geometry" />
        </mxCell>
        <mxCell id="qMRLxm-rLrutaJmakqVO-26" value="&lt;div&gt;Host&lt;/div&gt;&lt;div&gt;Router&lt;/div&gt;" style="shape=mxgraph.cisco.routers.router;sketch=0;html=1;pointerEvents=1;dashed=0;fillColor=#036897;strokeColor=#ffffff;strokeWidth=2;verticalLabelPosition=bottom;verticalAlign=top;align=center;outlineConnect=0;" parent="qMRLxm-rLrutaJmakqVO-29" vertex="1">
          <mxGeometry x="10" y="20" width="78" height="53" as="geometry" />
        </mxCell>
        <mxCell id="qMRLxm-rLrutaJmakqVO-33" value="" style="group" parent="1" vertex="1" connectable="0">
          <mxGeometry x="675" y="350" width="310" height="130" as="geometry" />
        </mxCell>
        <mxCell id="qMRLxm-rLrutaJmakqVO-9" value="" style="rounded=1;whiteSpace=wrap;html=1;" parent="qMRLxm-rLrutaJmakqVO-33" vertex="1">
          <mxGeometry width="310" height="130" as="geometry" />
        </mxCell>
        <mxCell id="pyfSCo66cifnsj62iawL-2258" value="&lt;div&gt;Server&lt;/div&gt;" style="shape=mxgraph.cisco.servers.standard_host;sketch=0;html=1;pointerEvents=1;dashed=0;fillColor=#036897;strokeColor=#ffffff;strokeWidth=2;verticalLabelPosition=bottom;verticalAlign=top;align=center;outlineConnect=0;" parent="qMRLxm-rLrutaJmakqVO-33" vertex="1">
          <mxGeometry x="250" y="22.5" width="53" height="62" as="geometry" />
        </mxCell>
        <mxCell id="qMRLxm-rLrutaJmakqVO-32" value="" style="edgeStyle=orthogonalEdgeStyle;rounded=0;orthogonalLoop=1;jettySize=auto;html=1;startArrow=classic;startFill=1;" parent="qMRLxm-rLrutaJmakqVO-33" source="pyfSCo66cifnsj62iawL-2263" target="pyfSCo66cifnsj62iawL-2258" edge="1">
          <mxGeometry relative="1" as="geometry" />
        </mxCell>
        <mxCell id="pyfSCo66cifnsj62iawL-2263" value="&lt;div&gt;Wireguard Server&lt;br&gt;&lt;/div&gt;" style="shape=mxgraph.cisco.switches.generic_softswitch;sketch=0;html=1;pointerEvents=1;dashed=0;fillColor=#036897;strokeColor=#ffffff;strokeWidth=2;verticalLabelPosition=bottom;verticalAlign=top;align=center;outlineConnect=0;" parent="qMRLxm-rLrutaJmakqVO-33" vertex="1">
          <mxGeometry x="131" y="16" width="50" height="75" as="geometry" />
        </mxCell>
        <mxCell id="qMRLxm-rLrutaJmakqVO-31" value="" style="edgeStyle=orthogonalEdgeStyle;rounded=0;orthogonalLoop=1;jettySize=auto;html=1;startArrow=classic;startFill=1;" parent="qMRLxm-rLrutaJmakqVO-33" source="pyfSCo66cifnsj62iawL-2269" target="pyfSCo66cifnsj62iawL-2263" edge="1">
          <mxGeometry relative="1" as="geometry" />
        </mxCell>
        <mxCell id="pyfSCo66cifnsj62iawL-2269" value="&lt;div&gt;Server&lt;/div&gt;&lt;div&gt;Firewall&lt;/div&gt;" style="shape=mxgraph.cisco.security.firewall;sketch=0;html=1;pointerEvents=1;dashed=0;fillColor=#036897;strokeColor=#ffffff;strokeWidth=2;verticalLabelPosition=bottom;verticalAlign=top;align=center;outlineConnect=0;" parent="qMRLxm-rLrutaJmakqVO-33" vertex="1">
          <mxGeometry x="20" y="20" width="29" height="67" as="geometry" />
        </mxCell>
        <mxCell id="qMRLxm-rLrutaJmakqVO-36" value="" style="edgeStyle=orthogonalEdgeStyle;rounded=0;orthogonalLoop=1;jettySize=auto;html=1;startArrow=classic;startFill=1;" parent="1" source="qMRLxm-rLrutaJmakqVO-28" target="qMRLxm-rLrutaJmakqVO-5" edge="1">
          <mxGeometry relative="1" as="geometry" />
        </mxCell>
        <mxCell id="qMRLxm-rLrutaJmakqVO-38" style="edgeStyle=orthogonalEdgeStyle;rounded=0;orthogonalLoop=1;jettySize=auto;html=1;startArrow=classic;startFill=1;" parent="1" source="qMRLxm-rLrutaJmakqVO-21" edge="1">
          <mxGeometry relative="1" as="geometry">
            <mxPoint x="670" y="160" as="targetPoint" />
            <Array as="points">
              <mxPoint x="590" y="317" />
              <mxPoint x="590" y="160" />
              <mxPoint x="670" y="160" />
            </Array>
          </mxGeometry>
        </mxCell>
      </root>
    </mxGraphModel>
  </diagram>
</mxfile>
